SplineFontDB: 3.0
FontName: FifteenTwentyUltraLight
FullName: FifteenTwenty Ultra Light
FamilyName: FifteenTwenty
Weight: UltraLight
Copyright: FifteenTwenty Ultra Light\nMade in 2016 by Stewart C. Russell - scruss.com\nLicence: Dual-licensed CC0/WTFPL (srsly)\n
UComments: "*** NB: This font is intended for single-line plotter/engraver use only, and may display poorly or not at all on your system ***+AAoACgAA-Derived from character stroke coordinates from the Commodore 1520 plotter ROM. This has been documented here - http://e4aws.silverdr.com/hacks/6500_1/ - and here - https://github.com/Project-64/reloaded/tree/master/1520/rom+AAoACgAA-This font contains none of the original Commodore coordinates, as they were in a format unusable with current computer systems.+AAoACgAA-Coverage: ASCII. A small number of glyphs were manually derived to fill out the full ASCII set."
Version: 001.001
ItalicAngle: 0
UnderlinePosition: -100
UnderlineWidth: 50
Ascent: 800
Descent: 200
InvalidEm: 0
LayerCount: 2
Layer: 0 0 "Back" 1
Layer: 1 0 "Fore" 0
XUID: [1021 627 876682324 6695641]
FSType: 0
OS2Version: 0
OS2_WeightWidthSlopeOnly: 0
OS2_UseTypoMetrics: 1
CreationTime: 1462722360
ModificationTime: 1462724358
PfmFamily: 17
TTFWeight: 100
TTFWidth: 5
LineGap: 90
VLineGap: 0
OS2TypoAscent: 0
OS2TypoAOffset: 1
OS2TypoDescent: 0
OS2TypoDOffset: 1
OS2TypoLinegap: 90
OS2WinAscent: 0
OS2WinAOffset: 1
OS2WinDescent: 0
OS2WinDOffset: 1
HheadAscent: 0
HheadAOffset: 1
HheadDescent: 0
HheadDOffset: 1
OS2Vendor: 'PfEd'
MarkAttachClasses: 1
DEI: 91125
LangName: 1033
Encoding: UnicodeFull
Compacted: 1
UnicodeInterp: none
NameList: AGL For New Fonts
DisplaySize: -48
AntiAlias: 1
FitToEm: 1
WinInfo: 0 17 10
BeginPrivate: 0
EndPrivate
BeginChars: 1114112 103

StartChar: exclam
Encoding: 33 33 0
Width: 576
VWidth: 179
Flags: W
HStem: 200 21G<242 334> 738 20G<242 334>
VStem: 242 92
LayerCount: 2
Back
Fore
SplineSet
242 758 m 1
 334 758 l 1
 334 386 l 1
 242 386 l 1
 242 758 l 1
242 758 m 1
 242 386 l 1
 334 386 l 1
 334 758 l 1
 242 758 l 1
242 293 m 1
 334 293 l 1
 334 200 l 1
 242 200 l 1
 242 293 l 1
242 293 m 1
 242 200 l 1
 334 200 l 1
 334 293 l 1
 242 293 l 1
EndSplineSet
EndChar

StartChar: quotedbl
Encoding: 34 34 1
Width: 576
VWidth: 179
Flags: W
VStem: 195 186
LayerCount: 2
Back
Fore
SplineSet
195 758 m 1
 195 665 l 1
 195 758 l 1
381 758 m 1
 381 665 l 1
 381 758 l 1
EndSplineSet
EndChar

StartChar: numbersign
Encoding: 35 35 2
Width: 576
VWidth: 179
Flags: W
LayerCount: 2
Back
Fore
SplineSet
195 665 m 1
 195 572 l 1
 381 572 l 1
 381 665 l 1
 381 572 l 1
 474 572 l 1
 381 572 l 1
 381 386 l 1
 474 386 l 1
 381 386 l 1
 381 293 l 1
 381 386 l 1
 195 386 l 1
 195 293 l 1
 195 386 l 1
 102 386 l 1
 195 386 l 1
 195 572 l 1
 102 572 l 1
 195 572 l 1
 195 665 l 1
195 572 m 1
 195 386 l 1
 381 386 l 1
 381 572 l 1
 195 572 l 1
EndSplineSet
EndChar

StartChar: dollar
Encoding: 36 36 3
Width: 576
VWidth: 179
Flags: W
LayerCount: 2
Back
Fore
SplineSet
288 758 m 1
 288 665 l 1
 381 665 l 1
 288 665 l 1
 288 479 l 1
 381 479 l 1
 474 386 l 1
 381 293 l 1
 288 293 l 1
 288 200 l 1
 288 293 l 1
 195 293 l 1
 288 293 l 1
 288 479 l 1
 195 479 l 1
 102 572 l 1
 195 665 l 1
 288 665 l 1
 288 758 l 1
195 665 m 1
 102 572 l 1
 195 479 l 1
 288 479 l 1
 288 665 l 1
 195 665 l 1
288 479 m 1
 288 293 l 1
 381 293 l 1
 474 386 l 1
 381 479 l 1
 288 479 l 1
EndSplineSet
EndChar

StartChar: percent
Encoding: 37 37 4
Width: 576
VWidth: 179
Flags: W
HStem: 572 21G<102 195>
LayerCount: 2
Back
Fore
SplineSet
102 665 m 1
 195 665 l 1
 195 572 l 1
 102 572 l 1
 102 665 l 1
474 665 m 1
 102 293 l 1
 474 665 l 1
102 665 m 1
 102 572 l 1
 195 572 l 1
 195 665 l 1
 102 665 l 1
381 386 m 1
 474 386 l 1
 474 293 l 1
 381 293 l 1
 381 386 l 1
381 386 m 1
 381 293 l 1
 474 293 l 1
 474 386 l 1
 381 386 l 1
EndSplineSet
EndChar

StartChar: ampersand
Encoding: 38 38 5
Width: 576
VWidth: 179
Flags: W
HStem: 200 21G<195 308 454 454> 738 20G<175 215>
LayerCount: 2
Back
Fore
SplineSet
195 758 m 1
 288 665 l 1
 288 572 l 1
 195 479 l 1
 381 293 l 1
 474 386 l 1
 381 293 l 1
 474 200 l 1
 381 293 l 1
 288 200 l 1
 195 200 l 1
 102 293 l 1
 102 386 l 1
 195 479 l 1
 102 572 l 1
 102 665 l 1
 195 758 l 1
195 758 m 1
 102 665 l 1
 102 572 l 1
 195 479 l 1
 288 572 l 1
 288 665 l 1
 195 758 l 1
195 479 m 1
 102 386 l 1
 102 293 l 1
 195 200 l 1
 288 200 l 1
 381 293 l 1
 195 479 l 1
EndSplineSet
EndChar

StartChar: quotesingle
Encoding: 39 39 6
Width: 576
VWidth: 179
Flags: W
LayerCount: 2
Back
Fore
SplineSet
288 758 m 1
 288 572 l 1
 288 758 l 1
EndSplineSet
EndChar

StartChar: parenleft
Encoding: 40 40 7
Width: 576
VWidth: 179
Flags: W
HStem: 200 21G<268 381> 738 20G<268 381>
LayerCount: 2
Back
Fore
SplineSet
288 758 m 1
 381 758 l 1
 288 758 l 1
 195 665 l 1
 195 293 l 1
 288 200 l 1
 381 200 l 1
 288 200 l 1
 195 293 l 1
 195 665 l 1
 288 758 l 1
EndSplineSet
EndChar

StartChar: parenright
Encoding: 41 41 8
Width: 576
VWidth: 179
Flags: W
HStem: 200 21G<195 308> 738 20G<195 308>
LayerCount: 2
Back
Fore
SplineSet
195 758 m 1
 288 758 l 1
 381 665 l 1
 381 293 l 1
 288 200 l 1
 195 200 l 1
 288 200 l 1
 381 293 l 1
 381 665 l 1
 288 758 l 1
 195 758 l 1
EndSplineSet
EndChar

StartChar: asterisk
Encoding: 42 42 9
Width: 576
VWidth: 179
Flags: W
LayerCount: 2
Back
Fore
SplineSet
102 665 m 1
 288 479 l 1
 288 665 l 1
 288 479 l 1
 474 665 l 1
 288 479 l 1
 474 293 l 1
 288 479 l 1
 288 293 l 1
 288 479 l 1
 102 293 l 1
 288 479 l 1
 102 665 l 1
EndSplineSet
EndChar

StartChar: plus
Encoding: 43 43 10
Width: 576
VWidth: 179
Flags: W
LayerCount: 2
Back
Fore
SplineSet
288 665 m 1
 288 479 l 1
 474 479 l 1
 288 479 l 1
 288 293 l 1
 288 479 l 1
 102 479 l 1
 288 479 l 1
 288 665 l 1
EndSplineSet
EndChar

StartChar: comma
Encoding: 44 44 11
Width: 576
VWidth: 179
Flags: W
HStem: 107 186
VStem: 242 92
LayerCount: 2
Back
Fore
SplineSet
242 293 m 1
 334 293 l 1
 334 200 l 1
 242 107 l 1
 334 200 l 1
 242 200 l 1
 242 293 l 1
242 293 m 1
 242 200 l 1
 334 200 l 1
 334 293 l 1
 242 293 l 1
EndSplineSet
EndChar

StartChar: hyphen
Encoding: 45 45 12
Width: 576
VWidth: 179
Flags: W
LayerCount: 2
Back
Fore
SplineSet
102 479 m 1
 474 479 l 1
 102 479 l 1
EndSplineSet
EndChar

StartChar: period
Encoding: 46 46 13
Width: 576
VWidth: 179
Flags: W
HStem: 200 93
VStem: 242 92
LayerCount: 2
Back
Fore
SplineSet
242 293 m 1
 334 293 l 1
 334 200 l 1
 242 200 l 1
 242 293 l 1
242 293 m 1
 242 200 l 1
 334 200 l 1
 334 293 l 1
 242 293 l 1
EndSplineSet
EndChar

StartChar: slash
Encoding: 47 47 14
Width: 576
VWidth: 179
Flags: W
LayerCount: 2
Back
Fore
SplineSet
520 665 m 1
 56 200 l 1
 520 665 l 1
EndSplineSet
EndChar

StartChar: zero
Encoding: 48 48 15
Width: 576
VWidth: 179
Flags: W
HStem: 200 21G<175 401> 738 20G<175 401>
LayerCount: 2
Back
Fore
SplineSet
195 758 m 1
 381 758 l 1
 474 665 l 1
 474 293 l 1
 381 200 l 1
 195 200 l 1
 102 293 l 1
 102 665 l 1
 195 758 l 1
195 758 m 1
 102 665 l 1
 102 293 l 1
 474 665 l 1
 381 758 l 1
 195 758 l 1
474 665 m 1
 102 293 l 1
 195 200 l 1
 381 200 l 1
 474 293 l 1
 474 665 l 1
EndSplineSet
EndChar

StartChar: one
Encoding: 49 49 16
Width: 576
VWidth: 179
Flags: W
HStem: 200 21G<288 381> 738 20G<268 288>
LayerCount: 2
Back
Fore
SplineSet
288 758 m 1
 288 200 l 1
 381 200 l 1
 195 200 l 1
 288 200 l 1
 288 758 l 1
 195 665 l 1
 288 758 l 1
EndSplineSet
EndChar

StartChar: two
Encoding: 50 50 17
Width: 576
VWidth: 179
Flags: W
HStem: 200 21G<102 102 122 474> 738 20G<175 401>
LayerCount: 2
Back
Fore
SplineSet
195 758 m 1
 381 758 l 1
 474 665 l 1
 474 572 l 1
 102 200 l 1
 474 200 l 1
 102 200 l 1
 474 572 l 1
 474 665 l 1
 381 758 l 1
 195 758 l 1
 102 665 l 1
 195 758 l 1
EndSplineSet
EndChar

StartChar: three
Encoding: 51 51 18
Width: 576
VWidth: 179
Flags: W
HStem: 200 21G<175 401> 738 20G<175 381>
LayerCount: 2
Back
Fore
SplineSet
195 758 m 1
 381 758 l 1
 474 665 l 1
 474 572 l 1
 381 479 l 1
 474 386 l 1
 474 293 l 1
 381 200 l 1
 195 200 l 1
 102 293 l 1
 195 200 l 1
 381 200 l 1
 474 293 l 1
 474 386 l 1
 381 479 l 1
 288 479 l 1
 381 479 l 1
 474 572 l 1
 474 665 l 1
 381 758 l 1
 195 758 l 1
 102 665 l 1
 195 758 l 1
EndSplineSet
EndChar

StartChar: four
Encoding: 52 52 19
Width: 576
VWidth: 179
Flags: W
HStem: 738 20G<361 381>
LayerCount: 2
Back
Fore
SplineSet
381 758 m 1
 381 386 l 1
 474 386 l 1
 381 386 l 1
 381 200 l 1
 381 386 l 1
 102 386 l 1
 102 479 l 1
 381 758 l 1
381 758 m 1
 102 479 l 1
 102 386 l 1
 381 386 l 1
 381 758 l 1
EndSplineSet
EndChar

StartChar: five
Encoding: 53 53 20
Width: 576
VWidth: 179
Flags: W
HStem: 200 21G<175 401> 738 20G<102 474>
LayerCount: 2
Back
Fore
SplineSet
102 758 m 1
 474 758 l 1
 102 758 l 1
 102 572 l 1
 381 572 l 1
 474 479 l 1
 474 293 l 1
 381 200 l 1
 195 200 l 1
 102 293 l 1
 195 200 l 1
 381 200 l 1
 474 293 l 1
 474 479 l 1
 381 572 l 1
 102 572 l 1
 102 758 l 1
EndSplineSet
EndChar

StartChar: six
Encoding: 54 54 21
Width: 576
VWidth: 179
Flags: W
HStem: 200 21G<175 401> 552 20G<175 401> 738 20G<175 401>
LayerCount: 2
Back
Fore
SplineSet
195 758 m 1
 381 758 l 1
 474 665 l 1
 381 758 l 1
 195 758 l 1
 102 665 l 1
 102 479 l 1
 195 572 l 1
 381 572 l 1
 474 479 l 1
 474 293 l 1
 381 200 l 1
 195 200 l 1
 102 293 l 1
 102 665 l 1
 195 758 l 1
195 572 m 1
 102 479 l 1
 102 293 l 1
 195 200 l 1
 381 200 l 1
 474 293 l 1
 474 479 l 1
 381 572 l 1
 195 572 l 1
EndSplineSet
EndChar

StartChar: seven
Encoding: 55 55 22
Width: 576
VWidth: 179
Flags: W
HStem: 200 21G<122 122> 738 20G<102 474>
LayerCount: 2
Back
Fore
SplineSet
102 758 m 1
 474 758 l 1
 474 572 l 1
 102 200 l 1
 474 572 l 1
 474 758 l 1
 102 758 l 1
EndSplineSet
EndChar

StartChar: eight
Encoding: 56 56 23
Width: 576
VWidth: 179
Flags: W
HStem: 200 21G<195 401> 738 20G<175 381>
LayerCount: 2
Back
Fore
SplineSet
195 758 m 1
 381 758 l 1
 474 665 l 1
 474 572 l 1
 381 479 l 1
 474 386 l 1
 474 293 l 1
 381 200 l 1
 195 200 l 1
 102 293 l 1
 102 386 l 1
 195 479 l 1
 102 572 l 1
 102 665 l 1
 195 758 l 1
195 758 m 1
 102 665 l 1
 102 572 l 1
 195 479 l 1
 381 479 l 1
 474 572 l 1
 474 665 l 1
 381 758 l 1
 195 758 l 1
195 479 m 1
 102 386 l 1
 102 293 l 1
 195 200 l 1
 381 200 l 1
 474 293 l 1
 474 386 l 1
 381 479 l 1
 195 479 l 1
EndSplineSet
EndChar

StartChar: nine
Encoding: 57 57 24
Width: 576
VWidth: 179
Flags: W
HStem: 200 21G<175 401> 738 20G<175 401>
LayerCount: 2
Back
Fore
SplineSet
195 758 m 1
 381 758 l 1
 474 665 l 1
 474 293 l 1
 381 200 l 1
 195 200 l 1
 102 293 l 1
 195 200 l 1
 381 200 l 1
 474 293 l 1
 474 572 l 1
 381 479 l 1
 195 479 l 1
 102 572 l 1
 102 665 l 1
 195 758 l 1
195 758 m 1
 102 665 l 1
 102 572 l 1
 195 479 l 1
 381 479 l 1
 474 572 l 1
 474 665 l 1
 381 758 l 1
 195 758 l 1
EndSplineSet
EndChar

StartChar: colon
Encoding: 58 58 25
Width: 576
VWidth: 179
Flags: W
HStem: 572 21G<242 334>
VStem: 242 92
LayerCount: 2
Back
Fore
SplineSet
242 665 m 1
 334 665 l 1
 334 572 l 1
 242 572 l 1
 242 665 l 1
242 665 m 1
 242 572 l 1
 334 572 l 1
 334 665 l 1
 242 665 l 1
242 386 m 1
 334 386 l 1
 334 293 l 1
 242 293 l 1
 242 386 l 1
242 386 m 1
 242 293 l 1
 334 293 l 1
 334 386 l 1
 242 386 l 1
EndSplineSet
EndChar

StartChar: semicolon
Encoding: 59 59 26
Width: 576
VWidth: 179
Flags: W
HStem: 572 21G<242 334>
VStem: 242 92
LayerCount: 2
Back
Fore
SplineSet
242 665 m 1
 334 665 l 1
 334 572 l 1
 242 572 l 1
 242 665 l 1
242 665 m 1
 242 572 l 1
 334 572 l 1
 334 665 l 1
 242 665 l 1
242 386 m 1
 334 386 l 1
 334 293 l 1
 242 200 l 1
 334 293 l 1
 242 293 l 1
 242 386 l 1
242 386 m 1
 242 293 l 1
 334 293 l 1
 334 386 l 1
 242 386 l 1
EndSplineSet
EndChar

StartChar: less
Encoding: 60 60 27
Width: 576
VWidth: 179
Flags: W
VStem: 148 280
LayerCount: 2
Back
Fore
SplineSet
428 758 m 1
 148 479 l 1
 428 200 l 1
 148 479 l 1
 428 758 l 1
EndSplineSet
EndChar

StartChar: equal
Encoding: 61 61 28
Width: 576
VWidth: 179
Flags: W
HStem: 386 186
LayerCount: 2
Back
Fore
SplineSet
148 572 m 1
 428 572 l 1
 148 572 l 1
148 386 m 1
 428 386 l 1
 148 386 l 1
EndSplineSet
EndChar

StartChar: greater
Encoding: 62 62 29
Width: 576
VWidth: 179
Flags: W
HStem: 200 21G<168.072 168.072> 738 20G<168.072 168.072>
VStem: 148 280
LayerCount: 2
Back
Fore
SplineSet
148 758 m 1
 428 479 l 1
 148 200 l 1
 428 479 l 1
 148 758 l 1
EndSplineSet
EndChar

StartChar: question
Encoding: 63 63 30
Width: 576
VWidth: 179
Flags: W
HStem: 738 20G<175 401>
LayerCount: 2
Back
Fore
SplineSet
195 758 m 1
 381 758 l 1
 474 665 l 1
 474 572 l 1
 381 479 l 1
 288 479 l 1
 288 386 l 1
 288 479 l 1
 381 479 l 1
 474 572 l 1
 474 665 l 1
 381 758 l 1
 195 758 l 1
 102 665 l 1
 195 758 l 1
288 293 m 1
 288 200 l 1
 288 293 l 1
EndSplineSet
EndChar

StartChar: at
Encoding: 64 64 31
Width: 576
VWidth: 179
Flags: W
HStem: 200 21G<175 474> 552 20G<195 381>
LayerCount: 2
Back
Fore
SplineSet
195 665 m 1
 381 665 l 1
 474 572 l 1
 474 386 l 1
 381 293 l 1
 195 293 l 1
 195 572 l 1
 381 572 l 1
 381 386 l 1
 381 572 l 1
 195 572 l 1
 195 293 l 1
 381 293 l 1
 474 386 l 1
 474 572 l 1
 381 665 l 1
 195 665 l 1
 102 572 l 1
 102 293 l 1
 195 200 l 1
 474 200 l 1
 195 200 l 1
 102 293 l 1
 102 572 l 1
 195 665 l 1
EndSplineSet
EndChar

StartChar: A
Encoding: 65 65 32
Width: 576
VWidth: 179
Flags: W
HStem: 738 20G<268 308>
LayerCount: 2
Back
Fore
SplineSet
288 758 m 1
 474 572 l 1
 474 200 l 1
 474 479 l 1
 102 479 l 1
 102 200 l 1
 102 572 l 1
 288 758 l 1
288 758 m 1
 102 572 l 1
 102 479 l 1
 474 479 l 1
 474 572 l 1
 288 758 l 1
EndSplineSet
EndChar

StartChar: B
Encoding: 66 66 33
Width: 576
VWidth: 179
Flags: W
HStem: 200 21G<102 401> 738 20G<102 381>
LayerCount: 2
Back
Fore
SplineSet
102 758 m 1
 381 758 l 1
 474 665 l 1
 474 572 l 1
 381 479 l 1
 474 386 l 1
 474 293 l 1
 381 200 l 1
 102 200 l 1
 102 758 l 1
102 758 m 1
 102 479 l 1
 381 479 l 1
 474 572 l 1
 474 665 l 1
 381 758 l 1
 102 758 l 1
102 479 m 1
 102 200 l 1
 381 200 l 1
 474 293 l 1
 474 386 l 1
 381 479 l 1
 102 479 l 1
EndSplineSet
EndChar

StartChar: C
Encoding: 67 67 34
Width: 576
VWidth: 179
Flags: W
HStem: 200 21G<175 401> 738 20G<175 401>
LayerCount: 2
Back
Fore
SplineSet
195 758 m 1
 381 758 l 1
 474 665 l 1
 381 758 l 1
 195 758 l 1
 102 665 l 1
 102 293 l 1
 195 200 l 1
 381 200 l 1
 474 293 l 1
 381 200 l 1
 195 200 l 1
 102 293 l 1
 102 665 l 1
 195 758 l 1
EndSplineSet
EndChar

StartChar: D
Encoding: 68 68 35
Width: 576
VWidth: 179
Flags: W
HStem: 200 21G<102 401> 738 20G<102 401>
LayerCount: 2
Back
Fore
SplineSet
102 758 m 1
 381 758 l 1
 474 665 l 1
 474 293 l 1
 381 200 l 1
 102 200 l 1
 102 758 l 1
102 758 m 1
 102 200 l 1
 381 200 l 1
 474 293 l 1
 474 665 l 1
 381 758 l 1
 102 758 l 1
EndSplineSet
EndChar

StartChar: E
Encoding: 69 69 36
Width: 576
VWidth: 179
Flags: W
HStem: 200 21G<102 474> 738 20G<102 474>
LayerCount: 2
Back
Fore
SplineSet
102 758 m 1
 474 758 l 1
 102 758 l 1
 102 479 l 1
 381 479 l 1
 102 479 l 1
 102 200 l 1
 474 200 l 1
 102 200 l 1
 102 758 l 1
EndSplineSet
EndChar

StartChar: F
Encoding: 70 70 37
Width: 576
VWidth: 179
Flags: W
HStem: 738 20G<102 474>
LayerCount: 2
Back
Fore
SplineSet
102 758 m 1
 474 758 l 1
 102 758 l 1
 102 479 l 1
 381 479 l 1
 102 479 l 1
 102 200 l 1
 102 758 l 1
EndSplineSet
EndChar

StartChar: G
Encoding: 71 71 38
Width: 576
VWidth: 179
Flags: W
HStem: 200 21G<175 474> 738 20G<175 401>
LayerCount: 2
Back
Fore
SplineSet
195 758 m 1
 381 758 l 1
 474 665 l 1
 381 758 l 1
 195 758 l 1
 102 665 l 1
 102 293 l 1
 195 200 l 1
 474 200 l 1
 474 479 l 1
 288 479 l 1
 474 479 l 1
 474 200 l 1
 195 200 l 1
 102 293 l 1
 102 665 l 1
 195 758 l 1
EndSplineSet
EndChar

StartChar: H
Encoding: 72 72 39
Width: 576
VWidth: 179
Flags: W
LayerCount: 2
Back
Fore
SplineSet
102 758 m 1
 102 479 l 1
 474 479 l 1
 474 758 l 1
 474 200 l 1
 474 479 l 1
 102 479 l 1
 102 200 l 1
 102 758 l 1
EndSplineSet
EndChar

StartChar: I
Encoding: 73 73 40
Width: 576
VWidth: 179
Flags: W
LayerCount: 2
Back
Fore
SplineSet
195 758 m 1
 381 758 l 1
 288 758 l 1
 288 200 l 1
 381 200 l 1
 195 200 l 1
 288 200 l 1
 288 758 l 1
 195 758 l 1
EndSplineSet
EndChar

StartChar: J
Encoding: 74 74 41
Width: 576
VWidth: 179
Flags: W
HStem: 200 21G<221.785 354.215>
VStem: 148 280
LayerCount: 2
Back
Fore
SplineSet
428 758 m 1
 428 293 l 1
 334 200 l 1
 242 200 l 1
 148 293 l 1
 242 200 l 1
 334 200 l 1
 428 293 l 1
 428 758 l 1
EndSplineSet
EndChar

StartChar: K
Encoding: 75 75 42
Width: 576
VWidth: 179
Flags: W
HStem: 200 21G<454 454> 738 20G<454 454>
LayerCount: 2
Back
Fore
SplineSet
474 758 m 1
 195 479 l 1
 474 200 l 1
 195 479 l 1
 102 386 l 1
 102 200 l 1
 102 758 l 1
 102 386 l 1
 474 758 l 1
EndSplineSet
EndChar

StartChar: L
Encoding: 76 76 43
Width: 576
VWidth: 179
Flags: W
HStem: 200 21G<102 474>
LayerCount: 2
Back
Fore
SplineSet
102 758 m 1
 102 200 l 1
 474 200 l 1
 102 200 l 1
 102 758 l 1
EndSplineSet
EndChar

StartChar: M
Encoding: 77 77 44
Width: 576
VWidth: 179
Flags: W
HStem: 738 20G<102 122 454 474>
LayerCount: 2
Back
Fore
SplineSet
102 758 m 1
 288 572 l 1
 474 758 l 1
 474 200 l 1
 474 758 l 1
 288 572 l 1
 288 479 l 1
 288 572 l 1
 102 758 l 1
 102 200 l 1
 102 758 l 1
EndSplineSet
EndChar

StartChar: N
Encoding: 78 78 45
Width: 576
VWidth: 179
Flags: W
LayerCount: 2
Back
Fore
SplineSet
102 758 m 1
 102 665 l 1
 474 293 l 1
 474 758 l 1
 474 200 l 1
 474 293 l 1
 102 665 l 1
 102 200 l 1
 102 758 l 1
EndSplineSet
EndChar

StartChar: O
Encoding: 79 79 46
Width: 576
VWidth: 179
Flags: W
HStem: 200 21G<175 401> 738 20G<175 401>
LayerCount: 2
Back
Fore
SplineSet
195 758 m 1
 381 758 l 1
 474 665 l 1
 474 293 l 1
 381 200 l 1
 195 200 l 1
 102 293 l 1
 102 665 l 1
 195 758 l 1
195 758 m 1
 102 665 l 1
 102 293 l 1
 195 200 l 1
 381 200 l 1
 474 293 l 1
 474 665 l 1
 381 758 l 1
 195 758 l 1
EndSplineSet
EndChar

StartChar: P
Encoding: 80 80 47
Width: 576
VWidth: 179
Flags: W
HStem: 738 20G<102 401>
LayerCount: 2
Back
Fore
SplineSet
102 758 m 1
 381 758 l 1
 474 665 l 1
 474 572 l 1
 381 479 l 1
 102 479 l 1
 102 200 l 1
 102 758 l 1
102 758 m 1
 102 479 l 1
 381 479 l 1
 474 572 l 1
 474 665 l 1
 381 758 l 1
 102 758 l 1
EndSplineSet
EndChar

StartChar: Q
Encoding: 81 81 48
Width: 576
VWidth: 179
Flags: W
HStem: 200 21G<175 401.435 454 454.426> 738 20G<175 401>
LayerCount: 2
Back
Fore
SplineSet
195 758 m 1
 381 758 l 1
 474 665 l 1
 474 293 l 1
 428 247 l 1
 474 200 l 1
 428 246 l 1
 381 200 l 1
 195 200 l 1
 102 293 l 1
 102 665 l 1
 195 758 l 1
195 758 m 1
 102 665 l 1
 102 293 l 1
 195 200 l 1
 381 200 l 1
 428 247 l 1
 288 386 l 1
 428 247 l 1
 474 293 l 1
 474 665 l 1
 381 758 l 1
 195 758 l 1
EndSplineSet
EndChar

StartChar: R
Encoding: 82 82 49
Width: 576
VWidth: 179
Flags: W
HStem: 738 20G<102 401>
LayerCount: 2
Back
Fore
SplineSet
102 758 m 1
 381 758 l 1
 474 665 l 1
 474 572 l 1
 381 479 l 1
 195 479 l 1
 474 200 l 1
 195 479 l 1
 102 479 l 1
 102 200 l 1
 102 758 l 1
102 758 m 1
 102 479 l 1
 381 479 l 1
 474 572 l 1
 474 665 l 1
 381 758 l 1
 102 758 l 1
EndSplineSet
EndChar

StartChar: S
Encoding: 83 83 50
Width: 576
VWidth: 179
Flags: W
HStem: 200 21G<175 401> 738 20G<175 401>
LayerCount: 2
Back
Fore
SplineSet
195 758 m 1
 381 758 l 1
 474 665 l 1
 381 758 l 1
 195 758 l 1
 102 665 l 1
 102 572 l 1
 195 479 l 1
 381 479 l 1
 474 386 l 1
 474 293 l 1
 381 200 l 1
 195 200 l 1
 102 293 l 1
 195 200 l 1
 381 200 l 1
 474 293 l 1
 474 386 l 1
 381 479 l 1
 195 479 l 1
 102 572 l 1
 102 665 l 1
 195 758 l 1
EndSplineSet
EndChar

StartChar: T
Encoding: 84 84 51
Width: 576
VWidth: 179
Flags: W
LayerCount: 2
Back
Fore
SplineSet
102 758 m 1
 474 758 l 1
 288 758 l 1
 288 200 l 1
 288 758 l 1
 102 758 l 1
EndSplineSet
EndChar

StartChar: U
Encoding: 85 85 52
Width: 576
VWidth: 179
Flags: W
HStem: 200 21G<175 401>
LayerCount: 2
Back
Fore
SplineSet
102 758 m 1
 102 293 l 1
 195 200 l 1
 381 200 l 1
 474 293 l 1
 474 758 l 1
 474 293 l 1
 381 200 l 1
 195 200 l 1
 102 293 l 1
 102 758 l 1
EndSplineSet
EndChar

StartChar: V
Encoding: 86 86 53
Width: 576
VWidth: 179
Flags: W
HStem: 200 21G<268 308>
LayerCount: 2
Back
Fore
SplineSet
102 758 m 1
 102 386 l 1
 288 200 l 1
 474 386 l 1
 474 758 l 1
 474 386 l 1
 288 200 l 1
 102 386 l 1
 102 758 l 1
EndSplineSet
EndChar

StartChar: W
Encoding: 87 87 54
Width: 576
VWidth: 179
Flags: W
HStem: 200 21G<102 122 454 474>
LayerCount: 2
Back
Fore
SplineSet
102 758 m 1
 102 200 l 1
 288 386 l 1
 288 479 l 1
 288 386 l 1
 474 200 l 1
 474 758 l 1
 474 200 l 1
 288 386 l 1
 102 200 l 1
 102 758 l 1
EndSplineSet
EndChar

StartChar: X
Encoding: 88 88 55
Width: 576
VWidth: 179
Flags: W
LayerCount: 2
Back
Fore
SplineSet
102 758 m 1
 102 665 l 1
 288 479 l 1
 474 665 l 1
 474 758 l 1
 474 665 l 1
 288 479 l 1
 474 293 l 1
 474 200 l 1
 474 293 l 1
 288 479 l 1
 102 293 l 1
 102 200 l 1
 102 293 l 1
 288 479 l 1
 102 665 l 1
 102 758 l 1
EndSplineSet
EndChar

StartChar: Y
Encoding: 89 89 56
Width: 576
VWidth: 179
Flags: W
LayerCount: 2
Back
Fore
SplineSet
102 758 m 1
 102 665 l 1
 288 479 l 1
 474 665 l 1
 474 758 l 1
 474 665 l 1
 288 479 l 1
 288 200 l 1
 288 479 l 1
 102 665 l 1
 102 758 l 1
EndSplineSet
EndChar

StartChar: Z
Encoding: 90 90 57
Width: 576
VWidth: 179
Flags: W
LayerCount: 2
Back
Fore
SplineSet
102 758 m 1
 474 758 l 1
 474 665 l 1
 102 293 l 1
 102 200 l 1
 474 200 l 1
 102 200 l 1
 102 293 l 1
 474 665 l 1
 474 758 l 1
 102 758 l 1
EndSplineSet
EndChar

StartChar: bracketleft
Encoding: 91 91 58
Width: 576
VWidth: 179
Flags: W
HStem: 738 20G<195 381>
LayerCount: 2
Back
Fore
SplineSet
195 758 m 1
 381 758 l 1
 195 758 l 1
 195 200 l 1
 381 200 l 1
 195 200 l 1
 195 758 l 1
EndSplineSet
EndChar

StartChar: backslash
Encoding: 92 92 59
Width: 576
VWidth: 179
Flags: W
LayerCount: 2
Back
Fore
SplineSet
56 665 m 1
 520 200 l 1
 56 665 l 1
EndSplineSet
EndChar

StartChar: bracketright
Encoding: 93 93 60
Width: 576
VWidth: 179
Flags: W
HStem: 200 21G<195 381 381 381> 738 20G<195 381>
LayerCount: 2
Back
Fore
SplineSet
195 758 m 1
 381 758 l 1
 381 200 l 1
 195 200 l 1
 381 200 l 1
 381 758 l 1
 195 758 l 1
EndSplineSet
EndChar

StartChar: asciicircum
Encoding: 94 94 61
Width: 576
VWidth: 179
Flags: W
HStem: 479 186
LayerCount: 2
Back
Fore
SplineSet
288 665 m 1
 474 479 l 1
 288 665 l 1
 102 479 l 1
 288 665 l 1
EndSplineSet
EndChar

StartChar: underscore
Encoding: 95 95 62
Width: 576
VWidth: 179
Flags: W
LayerCount: 2
Back
Fore
SplineSet
-38 107 m 1
 614 107 l 1
 -38 107 l 1
EndSplineSet
EndChar

StartChar: grave
Encoding: 96 96 63
Width: 576
VWidth: 179
Flags: W
HStem: 572 186
VStem: 242 92
LayerCount: 2
Back
Fore
SplineSet
242 758 m 1
 334 572 l 1
 242 758 l 1
EndSplineSet
EndChar

StartChar: a
Encoding: 97 97 64
Width: 576
VWidth: 179
Flags: W
HStem: 200 21G<175 308> 552 20G<102 308>
LayerCount: 2
Back
Fore
SplineSet
102 572 m 1
 288 572 l 1
 381 479 l 1
 381 293 l 1
 474 200 l 1
 381 293 l 1
 288 200 l 1
 195 200 l 1
 102 293 l 1
 102 386 l 1
 195 479 l 1
 288 479 l 1
 381 386 l 1
 381 479 l 1
 288 572 l 1
 102 572 l 1
195 479 m 1
 102 386 l 1
 102 293 l 1
 195 200 l 1
 288 200 l 1
 381 293 l 1
 381 386 l 1
 288 479 l 1
 195 479 l 1
EndSplineSet
EndChar

StartChar: b
Encoding: 98 98 65
Width: 576
VWidth: 179
Flags: W
HStem: 200 21G<148 354.215>
VStem: 148 280
LayerCount: 2
Back
Fore
SplineSet
148 758 m 1
 148 572 l 1
 334 572 l 1
 428 479 l 1
 428 293 l 1
 334 200 l 1
 148 200 l 1
 148 758 l 1
148 572 m 1
 148 200 l 1
 334 200 l 1
 428 293 l 1
 428 479 l 1
 334 572 l 1
 148 572 l 1
EndSplineSet
EndChar

StartChar: c
Encoding: 99 99 66
Width: 576
VWidth: 179
Flags: W
HStem: 200 21G<221.785 354.215> 552 20G<221.785 354.215>
VStem: 148 280
LayerCount: 2
Back
Fore
SplineSet
242 572 m 1
 334 572 l 1
 428 479 l 1
 334 572 l 1
 242 572 l 1
 148 479 l 1
 148 293 l 1
 242 200 l 1
 334 200 l 1
 428 293 l 1
 334 200 l 1
 242 200 l 1
 148 293 l 1
 148 479 l 1
 242 572 l 1
EndSplineSet
EndChar

StartChar: d
Encoding: 100 100 67
Width: 576
VWidth: 179
Flags: W
HStem: 200 21G<221.785 428>
VStem: 148 280
LayerCount: 2
Back
Fore
SplineSet
428 758 m 1
 428 200 l 1
 242 200 l 1
 148 293 l 1
 148 479 l 1
 242 572 l 1
 428 572 l 1
 428 758 l 1
242 572 m 1
 148 479 l 1
 148 293 l 1
 242 200 l 1
 428 200 l 1
 428 572 l 1
 242 572 l 1
EndSplineSet
EndChar

StartChar: e
Encoding: 101 101 68
Width: 576
VWidth: 179
Flags: W
HStem: 200 21G<221.785 428> 552 20G<221.785 354.215>
VStem: 148 280
LayerCount: 2
Back
Fore
SplineSet
242 572 m 1
 334 572 l 1
 428 479 l 1
 428 386 l 1
 148 386 l 1
 148 293 l 1
 242 200 l 1
 428 200 l 1
 242 200 l 1
 148 293 l 1
 148 479 l 1
 242 572 l 1
242 572 m 1
 148 479 l 1
 148 386 l 1
 428 386 l 1
 428 479 l 1
 334 572 l 1
 242 572 l 1
EndSplineSet
EndChar

StartChar: f
Encoding: 102 102 69
Width: 576
VWidth: 179
Flags: W
HStem: 738 20G<288 381>
LayerCount: 2
Back
Fore
SplineSet
288 758 m 1
 381 758 l 1
 288 758 l 1
 288 479 l 1
 381 479 l 1
 288 479 l 1
 288 200 l 1
 288 479 l 1
 195 479 l 1
 288 479 l 1
 288 758 l 1
EndSplineSet
EndChar

StartChar: g
Encoding: 103 103 70
Width: 576
VWidth: 179
Flags: W
HStem: 107 21G<221.785 354.215> 552 20G<221.785 354.215>
VStem: 148 280
LayerCount: 2
Back
Fore
SplineSet
242 572 m 1
 334 572 l 1
 428 479 l 1
 428 200 l 1
 334 107 l 1
 242 107 l 1
 148 200 l 1
 242 107 l 1
 334 107 l 1
 428 200 l 1
 428 386 l 1
 334 293 l 1
 242 293 l 1
 148 386 l 1
 148 479 l 1
 242 572 l 1
242 572 m 1
 148 479 l 1
 148 386 l 1
 242 293 l 1
 334 293 l 1
 428 386 l 1
 428 479 l 1
 334 572 l 1
 242 572 l 1
EndSplineSet
EndChar

StartChar: h
Encoding: 104 104 71
Width: 576
VWidth: 179
Flags: W
VStem: 148 280
LayerCount: 2
Back
Fore
SplineSet
148 758 m 1
 148 572 l 1
 334 572 l 1
 428 479 l 1
 428 200 l 1
 428 479 l 1
 334 572 l 1
 148 572 l 1
 148 200 l 1
 148 758 l 1
EndSplineSet
EndChar

StartChar: i
Encoding: 105 105 72
Width: 576
VWidth: 179
Flags: W
LayerCount: 2
Back
Fore
SplineSet
288 665 m 1
 288 572 l 1
 288 665 l 1
288 479 m 1
 288 200 l 1
 288 479 l 1
EndSplineSet
EndChar

StartChar: j
Encoding: 106 106 73
Width: 576
VWidth: 179
Flags: W
HStem: 107 21G<221.785 354.215>
VStem: 148 280
LayerCount: 2
Back
Fore
SplineSet
428 665 m 1
 428 572 l 1
 428 665 l 1
428 479 m 1
 428 200 l 1
 334 107 l 1
 242 107 l 1
 148 200 l 1
 242 107 l 1
 334 107 l 1
 428 200 l 1
 428 479 l 1
EndSplineSet
EndChar

StartChar: k
Encoding: 107 107 74
Width: 576
VWidth: 179
Flags: W
HStem: 200 21G<408 408> 552 20G<407.928 408>
VStem: 148 280
LayerCount: 2
Back
Fore
SplineSet
148 758 m 1
 148 293 l 1
 428 572 l 1
 242 386 l 1
 428 200 l 1
 242 386 l 1
 148 293 l 1
 148 200 l 1
 148 758 l 1
EndSplineSet
EndChar

StartChar: l
Encoding: 108 108 75
Width: 576
VWidth: 179
Flags: W
HStem: 200 21G<242 334>
LayerCount: 2
Back
Fore
SplineSet
242 758 m 1
 242 200 l 1
 334 200 l 1
 242 200 l 1
 242 758 l 1
EndSplineSet
EndChar

StartChar: m
Encoding: 109 109 76
Width: 576
VWidth: 179
Flags: W
HStem: 552 20G<175 215 361 401>
LayerCount: 2
Back
Fore
SplineSet
195 572 m 1
 288 479 l 1
 381 572 l 1
 474 479 l 1
 474 200 l 1
 474 479 l 1
 381 572 l 1
 288 479 l 1
 288 200 l 1
 288 479 l 1
 195 572 l 1
 102 479 l 1
 102 200 l 1
 102 572 l 1
 102 479 l 1
 195 572 l 1
EndSplineSet
EndChar

StartChar: n
Encoding: 110 110 77
Width: 576
VWidth: 179
Flags: W
HStem: 552 20G<221.785 354.215>
VStem: 148 280
LayerCount: 2
Back
Fore
SplineSet
242 572 m 1
 334 572 l 1
 428 479 l 1
 428 200 l 1
 428 479 l 1
 334 572 l 1
 242 572 l 1
 148 479 l 1
 148 200 l 1
 148 479 l 1
 148 572 l 1
 148 479 l 1
 242 572 l 1
EndSplineSet
EndChar

StartChar: o
Encoding: 111 111 78
Width: 576
VWidth: 179
Flags: W
HStem: 200 21G<221.785 354.215> 552 20G<221.785 354.215>
VStem: 148 280
LayerCount: 2
Back
Fore
SplineSet
242 572 m 1
 334 572 l 1
 428 479 l 1
 428 293 l 1
 334 200 l 1
 242 200 l 1
 148 293 l 1
 148 479 l 1
 242 572 l 1
242 572 m 1
 148 479 l 1
 148 293 l 1
 242 200 l 1
 334 200 l 1
 428 293 l 1
 428 479 l 1
 334 572 l 1
 242 572 l 1
EndSplineSet
EndChar

StartChar: p
Encoding: 112 112 79
Width: 576
VWidth: 179
Flags: W
HStem: 552 20G<148 354.215>
VStem: 148 280
LayerCount: 2
Back
Fore
SplineSet
148 572 m 1
 334 572 l 1
 428 479 l 1
 428 386 l 1
 334 293 l 1
 148 293 l 1
 148 107 l 1
 148 572 l 1
148 572 m 1
 148 293 l 1
 334 293 l 1
 428 386 l 1
 428 479 l 1
 334 572 l 1
 148 572 l 1
EndSplineSet
EndChar

StartChar: q
Encoding: 113 113 80
Width: 576
VWidth: 179
Flags: W
HStem: 107 21G<381 474> 552 20G<175 381>
LayerCount: 2
Back
Fore
SplineSet
195 572 m 1
 381 572 l 1
 381 107 l 1
 474 107 l 1
 381 107 l 1
 381 293 l 1
 195 293 l 1
 102 386 l 1
 102 479 l 1
 195 572 l 1
195 572 m 1
 102 479 l 1
 102 386 l 1
 195 293 l 1
 381 293 l 1
 381 572 l 1
 195 572 l 1
EndSplineSet
EndChar

StartChar: r
Encoding: 114 114 81
Width: 576
VWidth: 179
Flags: W
HStem: 552 20G<314.215 428>
LayerCount: 2
Back
Fore
SplineSet
334 572 m 1
 428 572 l 1
 334 572 l 1
 242 479 l 1
 242 200 l 1
 242 479 l 1
 148 572 l 1
 242 479 l 1
 334 572 l 1
EndSplineSet
EndChar

StartChar: s
Encoding: 115 115 82
Width: 576
VWidth: 179
Flags: W
HStem: 200 21G<221.785 354.215> 552 20G<221.785 354.215>
VStem: 148 280
LayerCount: 2
Back
Fore
SplineSet
242 572 m 1
 334 572 l 1
 428 479 l 1
 334 572 l 1
 242 572 l 1
 148 479 l 1
 242 386 l 1
 334 386 l 1
 428 293 l 1
 334 200 l 1
 242 200 l 1
 148 293 l 1
 242 200 l 1
 334 200 l 1
 428 293 l 1
 334 386 l 1
 242 386 l 1
 148 479 l 1
 242 572 l 1
EndSplineSet
EndChar

StartChar: t
Encoding: 116 116 83
Width: 576
VWidth: 179
Flags: W
LayerCount: 2
Back
Fore
SplineSet
288 758 m 1
 288 572 l 1
 381 572 l 1
 288 572 l 1
 288 200 l 1
 381 200 l 1
 288 200 l 1
 288 572 l 1
 195 572 l 1
 288 572 l 1
 288 758 l 1
EndSplineSet
EndChar

StartChar: u
Encoding: 117 117 84
Width: 576
VWidth: 179
Flags: W
HStem: 200 21G<148 428>
VStem: 148 280
LayerCount: 2
Back
Fore
SplineSet
148 572 m 1
 148 200 l 1
 428 200 l 1
 428 572 l 1
 428 200 l 1
 148 200 l 1
 148 572 l 1
EndSplineSet
EndChar

StartChar: v
Encoding: 118 118 85
Width: 576
VWidth: 179
Flags: W
HStem: 200 21G<268 308>
LayerCount: 2
Back
Fore
SplineSet
102 572 m 1
 102 386 l 1
 288 200 l 1
 474 386 l 1
 474 572 l 1
 474 386 l 1
 288 200 l 1
 102 386 l 1
 102 572 l 1
EndSplineSet
EndChar

StartChar: w
Encoding: 119 119 86
Width: 576
VWidth: 179
Flags: W
HStem: 200 21G<175 215 361 401>
LayerCount: 2
Back
Fore
SplineSet
102 572 m 1
 102 293 l 1
 195 200 l 1
 288 293 l 1
 288 386 l 1
 288 293 l 1
 381 200 l 1
 474 293 l 1
 474 572 l 1
 474 293 l 1
 381 200 l 1
 288 293 l 1
 195 200 l 1
 102 293 l 1
 102 572 l 1
EndSplineSet
EndChar

StartChar: x
Encoding: 120 120 87
Width: 576
VWidth: 179
Flags: W
HStem: 200 21G<122 122 454 454> 552 20G<122 122 454 454>
LayerCount: 2
Back
Fore
SplineSet
102 572 m 1
 288 386 l 1
 474 572 l 1
 288 386 l 1
 474 200 l 1
 288 386 l 1
 102 200 l 1
 288 386 l 1
 102 572 l 1
EndSplineSet
EndChar

StartChar: y
Encoding: 121 121 88
Width: 576
VWidth: 179
Flags: W
LayerCount: 2
Back
Fore
SplineSet
102 572 m 1
 102 479 l 1
 288 293 l 1
 474 479 l 1
 474 572 l 1
 474 479 l 1
 102 107 l 1
 288 293 l 1
 102 479 l 1
 102 572 l 1
EndSplineSet
EndChar

StartChar: z
Encoding: 122 122 89
Width: 576
VWidth: 179
Flags: W
HStem: 200 21G<102 102> 552 20G<102 454>
LayerCount: 2
Back
Fore
SplineSet
102 572 m 1
 474 572 l 1
 102 200 l 1
 474 200 l 1
 102 200 l 1
 474 572 l 1
 102 572 l 1
EndSplineSet
EndChar

StartChar: braceleft
Encoding: 123 123 90
Width: 576
VWidth: 179
Flags: W
HStem: 738 20G<268 381>
LayerCount: 2
Back
Fore
SplineSet
288 758 m 1
 381 758 l 1
 288 758 l 1
 195 665 l 1
 288 572 l 1
 195 479 l 1
 288 386 l 1
 195 293 l 1
 288 200 l 1
 381 200 l 1
 288 200 l 1
 195 293 l 1
 288 386 l 1
 195 479 l 1
 288 572 l 1
 195 665 l 1
 288 758 l 1
EndSplineSet
EndChar

StartChar: bar
Encoding: 124 124 91
Width: 576
VWidth: 179
Flags: W
LayerCount: 2
Back
Fore
SplineSet
288 758 m 1
 288 107 l 1
 288 758 l 1
EndSplineSet
EndChar

StartChar: braceright
Encoding: 125 125 92
Width: 576
VWidth: 179
Flags: W
HStem: 200 21G<195 308>
LayerCount: 2
Back
Fore
SplineSet
195 758 m 1
 288 758 l 1
 381 665 l 1
 288 572 l 1
 381 479 l 1
 288 386 l 1
 381 293 l 1
 288 200 l 1
 195 200 l 1
 288 200 l 1
 381 293 l 1
 288 386 l 1
 381 479 l 1
 288 572 l 1
 381 665 l 1
 288 758 l 1
 195 758 l 1
EndSplineSet
EndChar

StartChar: asciitilde
Encoding: 126 126 93
Width: 576
VWidth: 179
Flags: W
HStem: 386 186
LayerCount: 2
Back
Fore
SplineSet
195 572 m 1
 381 386 l 1
 474 479 l 1
 381 386 l 1
 195 572 l 1
 102 479 l 1
 195 572 l 1
EndSplineSet
EndChar

StartChar: sterling
Encoding: 163 163 94
Width: 576
VWidth: 179
Flags: W
HStem: 200 21G<128.215 262 314 520>
LayerCount: 2
Back
Fore
SplineSet
428 665 m 1
 520 665 l 1
 428 665 l 1
 334 572 l 1
 334 479 l 1
 428 479 l 1
 334 479 l 1
 334 293 l 1
 288 247 l 1
 334 200 l 1
 520 200 l 1
 334 200 l 1
 288 246 l 1
 242 200 l 1
 148 200 l 1
 56 293 l 1
 148 386 l 1
 288 247 l 1
 334 293 l 1
 334 479 l 1
 242 479 l 1
 334 479 l 1
 334 572 l 1
 428 665 l 1
148 386 m 1
 56 293 l 1
 148 200 l 1
 242 200 l 1
 288 247 l 1
 148 386 l 1
EndSplineSet
EndChar

StartChar: pi
Encoding: 960 960 95
Width: 576
VWidth: 179
Flags: W
LayerCount: 2
Back
Fore
SplineSet
474 572 m 1
 381 479 l 1
 381 200 l 1
 381 479 l 1
 195 479 l 1
 195 200 l 1
 195 479 l 1
 102 386 l 1
 195 479 l 1
 381 479 l 1
 474 572 l 1
EndSplineSet
EndChar

StartChar: arrowleft
Encoding: 8592 8592 96
Width: 576
VWidth: 179
Flags: W
LayerCount: 2
Back
Fore
SplineSet
242 665 m 1
 56 479 l 1
 520 479 l 1
 56 479 l 1
 242 293 l 1
 56 479 l 1
 242 665 l 1
EndSplineSet
EndChar

StartChar: arrowup
Encoding: 8593 8593 97
Width: 576
VWidth: 179
Flags: W
LayerCount: 2
Back
Fore
SplineSet
288 665 m 1
 474 479 l 1
 288 665 l 1
 288 200 l 1
 288 665 l 1
 102 479 l 1
 288 665 l 1
EndSplineSet
EndChar

StartChar: SF100000
Encoding: 9472 9472 98
Width: 576
VWidth: 179
Flags: W
LayerCount: 2
Back
Fore
SplineSet
-38 479 m 1
 614 479 l 1
 -38 479 l 1
EndSplineSet
EndChar

StartChar: SF110000
Encoding: 9474 9474 99
Width: 576
VWidth: 179
Flags: W
LayerCount: 2
Back
Fore
SplineSet
288 758 m 1
 288 107 l 1
 288 758 l 1
EndSplineSet
EndChar

StartChar: uni25B3
Encoding: 9651 9651 100
Width: 576
VWidth: 179
Flags: W
HStem: 200 279
LayerCount: 2
Back
Fore
SplineSet
288 479 m 1
 567 200 l 1
 9 200 l 1
 288 479 l 1
288 479 m 1
 9 200 l 1
 567 200 l 1
 288 479 l 1
EndSplineSet
EndChar

StartChar: uni25FB
Encoding: 9723 9723 101
Width: 576
VWidth: 179
Flags: W
HStem: 200 21G<56 520> 738 20G<56 520>
LayerCount: 2
Back
Fore
SplineSet
56 758 m 1
 520 758 l 1
 520 200 l 1
 56 200 l 1
 56 758 l 1
56 758 m 1
 56 200 l 1
 520 200 l 1
 520 758 l 1
 56 758 l 1
EndSplineSet
EndChar

